<mxfile host="app.diagrams.net" modified="2024-02-20T01:48:03.997Z" agent="Mozilla/5.0 (Macintosh; Intel Mac OS X 10_15_7) AppleWebKit/537.36 (KHTML, like Gecko) Chrome/121.0.0.0 Safari/537.36" etag="9f2eKPV2e41jXXVdRd0Y" version="23.1.5" type="device">
  <diagram name="Page-1" id="9B7ffDTyQbbA48rRYhjD">
    <mxGraphModel dx="1509" dy="1833" grid="1" gridSize="10" guides="1" tooltips="1" connect="1" arrows="1" fold="1" page="1" pageScale="1" pageWidth="850" pageHeight="1100" background="#ffffff" math="0" shadow="0">
      <root>
        <mxCell id="0" />
        <mxCell id="1" parent="0" />
        <mxCell id="qDFJ__rZfRqTDLemH5My-1" value="Public subnet" style="points=[[0,0],[0.25,0],[0.5,0],[0.75,0],[1,0],[1,0.25],[1,0.5],[1,0.75],[1,1],[0.75,1],[0.5,1],[0.25,1],[0,1],[0,0.75],[0,0.5],[0,0.25]];outlineConnect=0;gradientColor=none;html=1;whiteSpace=wrap;fontSize=12;fontStyle=0;container=1;pointerEvents=0;collapsible=0;recursiveResize=0;shape=mxgraph.aws4.group;grIcon=mxgraph.aws4.group_security_group;grStroke=0;strokeColor=#7AA116;fillColor=#F2F6E8;verticalAlign=top;align=left;spacingLeft=30;fontColor=#248814;dashed=0;" vertex="1" parent="1">
          <mxGeometry x="190" y="280" width="130" height="130" as="geometry" />
        </mxCell>
        <mxCell id="qDFJ__rZfRqTDLemH5My-3" value="" style="sketch=0;points=[[0,0,0],[0.25,0,0],[0.5,0,0],[0.75,0,0],[1,0,0],[0,1,0],[0.25,1,0],[0.5,1,0],[0.75,1,0],[1,1,0],[0,0.25,0],[0,0.5,0],[0,0.75,0],[1,0.25,0],[1,0.5,0],[1,0.75,0]];outlineConnect=0;fontColor=#232F3E;fillColor=#ED7100;strokeColor=#ffffff;dashed=0;verticalLabelPosition=bottom;verticalAlign=top;align=center;html=1;fontSize=12;fontStyle=0;aspect=fixed;shape=mxgraph.aws4.resourceIcon;resIcon=mxgraph.aws4.ec2;" vertex="1" parent="qDFJ__rZfRqTDLemH5My-1">
          <mxGeometry x="26" y="30" width="78" height="78" as="geometry" />
        </mxCell>
        <mxCell id="qDFJ__rZfRqTDLemH5My-2" value="Private subnet" style="points=[[0,0],[0.25,0],[0.5,0],[0.75,0],[1,0],[1,0.25],[1,0.5],[1,0.75],[1,1],[0.75,1],[0.5,1],[0.25,1],[0,1],[0,0.75],[0,0.5],[0,0.25]];outlineConnect=0;gradientColor=none;html=1;whiteSpace=wrap;fontSize=12;fontStyle=0;container=1;pointerEvents=0;collapsible=0;recursiveResize=0;shape=mxgraph.aws4.group;grIcon=mxgraph.aws4.group_security_group;grStroke=0;strokeColor=#00A4A6;fillColor=#E6F6F7;verticalAlign=top;align=left;spacingLeft=30;fontColor=#147EBA;dashed=0;" vertex="1" parent="1">
          <mxGeometry x="660" y="280" width="130" height="130" as="geometry" />
        </mxCell>
        <mxCell id="qDFJ__rZfRqTDLemH5My-4" value="" style="outlineConnect=0;dashed=0;verticalLabelPosition=bottom;verticalAlign=top;align=center;html=1;shape=mxgraph.aws3.rds;fillColor=#2E73B8;gradientColor=none;" vertex="1" parent="qDFJ__rZfRqTDLemH5My-2">
          <mxGeometry x="29" y="29" width="72" height="81" as="geometry" />
        </mxCell>
        <mxCell id="qDFJ__rZfRqTDLemH5My-5" style="edgeStyle=orthogonalEdgeStyle;rounded=0;orthogonalLoop=1;jettySize=auto;html=1;entryX=0;entryY=0.5;entryDx=0;entryDy=0;entryPerimeter=0;" edge="1" parent="1" source="qDFJ__rZfRqTDLemH5My-3" target="qDFJ__rZfRqTDLemH5My-4">
          <mxGeometry relative="1" as="geometry" />
        </mxCell>
        <mxCell id="qDFJ__rZfRqTDLemH5My-6" value="" style="sketch=0;points=[[0,0,0],[0.25,0,0],[0.5,0,0],[0.75,0,0],[1,0,0],[0,1,0],[0.25,1,0],[0.5,1,0],[0.75,1,0],[1,1,0],[0,0.25,0],[0,0.5,0],[0,0.75,0],[1,0.25,0],[1,0.5,0],[1,0.75,0]];outlineConnect=0;fontColor=#232F3E;fillColor=#7AA116;strokeColor=#ffffff;dashed=0;verticalLabelPosition=bottom;verticalAlign=top;align=center;html=1;fontSize=12;fontStyle=0;aspect=fixed;shape=mxgraph.aws4.resourceIcon;resIcon=mxgraph.aws4.s3;" vertex="1" parent="1">
          <mxGeometry x="680" y="440" width="78" height="78" as="geometry" />
        </mxCell>
        <mxCell id="qDFJ__rZfRqTDLemH5My-7" style="edgeStyle=orthogonalEdgeStyle;rounded=0;orthogonalLoop=1;jettySize=auto;html=1;entryX=0;entryY=0.5;entryDx=0;entryDy=0;entryPerimeter=0;" edge="1" parent="1" source="qDFJ__rZfRqTDLemH5My-3" target="qDFJ__rZfRqTDLemH5My-6">
          <mxGeometry relative="1" as="geometry">
            <mxPoint x="240" y="510" as="targetPoint" />
            <Array as="points">
              <mxPoint x="255" y="480" />
              <mxPoint x="487" y="480" />
              <mxPoint x="487" y="479" />
            </Array>
          </mxGeometry>
        </mxCell>
        <mxCell id="qDFJ__rZfRqTDLemH5My-9" value="&lt;b&gt;&lt;font style=&quot;font-size: 15px;&quot;&gt;Security group&lt;/font&gt;&lt;/b&gt;" style="fillColor=none;strokeColor=#DD3522;verticalAlign=top;fontStyle=0;fontColor=#DD3522;whiteSpace=wrap;html=1;strokeWidth=3;" vertex="1" parent="1">
          <mxGeometry x="170" y="248" width="640" height="292" as="geometry" />
        </mxCell>
        <mxCell id="qDFJ__rZfRqTDLemH5My-11" value="&lt;b&gt;Availability Zone&lt;/b&gt;" style="fillColor=none;strokeColor=#147EBA;dashed=1;verticalAlign=top;fontStyle=0;fontColor=#147EBA;whiteSpace=wrap;html=1;strokeWidth=3;rounded=1;" vertex="1" parent="1">
          <mxGeometry x="135" y="210" width="710" height="360" as="geometry" />
        </mxCell>
        <mxCell id="qDFJ__rZfRqTDLemH5My-14" value="&lt;b&gt;VPC&lt;/b&gt;" style="points=[[0,0],[0.25,0],[0.5,0],[0.75,0],[1,0],[1,0.25],[1,0.5],[1,0.75],[1,1],[0.75,1],[0.5,1],[0.25,1],[0,1],[0,0.75],[0,0.5],[0,0.25]];outlineConnect=0;gradientColor=none;html=1;whiteSpace=wrap;fontSize=12;fontStyle=0;container=1;pointerEvents=0;collapsible=0;recursiveResize=0;shape=mxgraph.aws4.group;grIcon=mxgraph.aws4.group_vpc2;strokeColor=#8C4FFF;fillColor=none;verticalAlign=top;align=left;spacingLeft=30;fontColor=#AAB7B8;dashed=0;strokeWidth=3;" vertex="1" parent="1">
          <mxGeometry x="110" y="170" width="750" height="430" as="geometry" />
        </mxCell>
        <mxCell id="qDFJ__rZfRqTDLemH5My-15" value="" style="sketch=0;outlineConnect=0;fontColor=#232F3E;gradientColor=none;fillColor=#8C4FFF;strokeColor=none;dashed=0;verticalLabelPosition=bottom;verticalAlign=top;align=center;html=1;fontSize=12;fontStyle=0;aspect=fixed;pointerEvents=1;shape=mxgraph.aws4.internet_gateway;" vertex="1" parent="1">
          <mxGeometry x="460" y="140" width="50" height="50" as="geometry" />
        </mxCell>
        <mxCell id="qDFJ__rZfRqTDLemH5My-16" value="Region" style="points=[[0,0],[0.25,0],[0.5,0],[0.75,0],[1,0],[1,0.25],[1,0.5],[1,0.75],[1,1],[0.75,1],[0.5,1],[0.25,1],[0,1],[0,0.75],[0,0.5],[0,0.25]];outlineConnect=0;gradientColor=none;html=1;whiteSpace=wrap;fontSize=12;fontStyle=0;container=1;pointerEvents=0;collapsible=0;recursiveResize=0;shape=mxgraph.aws4.group;grIcon=mxgraph.aws4.group_region;strokeColor=#00A4A6;fillColor=none;verticalAlign=top;align=left;spacingLeft=30;fontColor=#147EBA;strokeWidth=3;" vertex="1" parent="1">
          <mxGeometry x="80" y="130" width="840" height="490" as="geometry" />
        </mxCell>
        <mxCell id="qDFJ__rZfRqTDLemH5My-17" value="AWS Cloud" style="points=[[0,0],[0.25,0],[0.5,0],[0.75,0],[1,0],[1,0.25],[1,0.5],[1,0.75],[1,1],[0.75,1],[0.5,1],[0.25,1],[0,1],[0,0.75],[0,0.5],[0,0.25]];outlineConnect=0;gradientColor=none;html=1;whiteSpace=wrap;fontSize=12;fontStyle=0;container=1;pointerEvents=0;collapsible=0;recursiveResize=0;shape=mxgraph.aws4.group;grIcon=mxgraph.aws4.group_aws_cloud_alt;strokeColor=#232F3E;fillColor=none;verticalAlign=top;align=left;spacingLeft=30;fontColor=#232F3E;dashed=0;" vertex="1" parent="1">
          <mxGeometry x="60" y="90" width="920" height="560" as="geometry" />
        </mxCell>
        <mxCell id="qDFJ__rZfRqTDLemH5My-21" value="" style="outlineConnect=0;dashed=0;verticalLabelPosition=bottom;verticalAlign=top;align=center;html=1;shape=mxgraph.aws3.iam;fillColor=#759C3E;gradientColor=none;" vertex="1" parent="qDFJ__rZfRqTDLemH5My-17">
          <mxGeometry x="390" y="180" width="42" height="70" as="geometry" />
        </mxCell>
        <mxCell id="qDFJ__rZfRqTDLemH5My-27" value="" style="edgeStyle=orthogonalEdgeStyle;html=1;endArrow=none;elbow=vertical;startArrow=block;startFill=1;strokeColor=#545B64;rounded=0;" edge="1" parent="qDFJ__rZfRqTDLemH5My-17" target="qDFJ__rZfRqTDLemH5My-21">
          <mxGeometry width="100" relative="1" as="geometry">
            <mxPoint x="240" y="230" as="sourcePoint" />
            <mxPoint x="330" y="230" as="targetPoint" />
          </mxGeometry>
        </mxCell>
        <mxCell id="qDFJ__rZfRqTDLemH5My-38" value="&lt;b&gt;Internet-Gateway&lt;/b&gt;" style="text;html=1;align=center;verticalAlign=middle;resizable=0;points=[];autosize=1;strokeColor=none;fillColor=none;" vertex="1" parent="qDFJ__rZfRqTDLemH5My-17">
          <mxGeometry x="445" y="48" width="120" height="30" as="geometry" />
        </mxCell>
        <mxCell id="qDFJ__rZfRqTDLemH5My-40" value="&lt;b&gt;IAM-Role&lt;/b&gt;" style="text;html=1;align=center;verticalAlign=middle;resizable=0;points=[];autosize=1;strokeColor=none;fillColor=none;" vertex="1" parent="qDFJ__rZfRqTDLemH5My-17">
          <mxGeometry x="420" y="200" width="80" height="30" as="geometry" />
        </mxCell>
        <mxCell id="qDFJ__rZfRqTDLemH5My-41" value="&lt;b&gt;RDS&lt;/b&gt;" style="text;html=1;align=center;verticalAlign=middle;resizable=0;points=[];autosize=1;strokeColor=none;fillColor=none;" vertex="1" parent="qDFJ__rZfRqTDLemH5My-17">
          <mxGeometry x="640" y="300" width="50" height="30" as="geometry" />
        </mxCell>
        <mxCell id="qDFJ__rZfRqTDLemH5My-42" value="&lt;b&gt;S3-Bucket&lt;/b&gt;" style="text;html=1;align=center;verticalAlign=middle;resizable=0;points=[];autosize=1;strokeColor=none;fillColor=none;" vertex="1" parent="qDFJ__rZfRqTDLemH5My-17">
          <mxGeometry x="540" y="360" width="80" height="30" as="geometry" />
        </mxCell>
        <mxCell id="qDFJ__rZfRqTDLemH5My-33" style="edgeStyle=orthogonalEdgeStyle;rounded=0;orthogonalLoop=1;jettySize=auto;html=1;" edge="1" parent="1" source="qDFJ__rZfRqTDLemH5My-28">
          <mxGeometry relative="1" as="geometry">
            <mxPoint x="640" y="-30" as="targetPoint" />
          </mxGeometry>
        </mxCell>
        <mxCell id="qDFJ__rZfRqTDLemH5My-28" value="" style="shape=image;verticalLabelPosition=bottom;labelBackgroundColor=default;verticalAlign=top;aspect=fixed;imageAspect=0;image=data:image/png,iVBORw0KGgoAAAANSUhEUgAAAGQAAABkCAYAAABw4pVUAAAMQGlDQ1BJQ0MgUHJvZmlsZQAASImVVwdYU8kWnluSkEBoAQSkhN4EkRpASggt9I4gKiEJEEqMgaBiRxcVXLtYwIauiihYAbGgiJ1FsWFfLCgo62LBrrxJAV33le/N9829//3nzH/OnDtz5w4Aaic5IlEuqg5AnrBAHBvsTx+XnEIn9QAE4ADAqy6Hmy9iRkeHwycwdP97eXcT2sFyzV6q9c/2/1o0ePx8LnQUDXE6L5+bB/EhAPBKrkhcAABRyptNLRBJMaxASwwDhHiRFGfKcaUUp8vxPplNfCwL4lYAlFQ4HHEmAKpXIE8v5GZCDdV+iB2FPIEQADU6xD55eZN5EKdBbA1tRBBL9RnpP+hk/k0zfViTw8kcxvKxyIpSgCBflMuZ/n+m43+XvFzJkA9LWFWyxCGx0jHDvN3KmRwmxSoQ9wnTI6Mg1oT4g4Ans4cYpWRJQhLk9qgBN58FcwZ0IHbkcQLCIDaAOEiYGxmu4NMzBEFsiOEMQacJCtjxEOtCvIifHxinsNkinhyr8IXWZ4hZTAV/niOW+ZX6eiDJSWAq9F9n8dkKfUy1KCs+CWIKxOaFgsRIiFUhdsjPiQtT2IwtymJFDtmIJbHS+M0hjuULg/3l+lhhhjgoVmFfmpc/NF5sS5aAHanABwqy4kPk+cFauRxZ/HAs2BW+kJkwpMPPHxc+NBYePyBQPnashy9MiFPofBAV+MfK++IUUW60wh435ecGS3lTiF3yC+MUffHEAjgh5fp4hqggOl4eJ16UzQmNlseDLwfhgAUCAB1IYE0Hk0E2ELT3NfTBJ3lLEOAAMcgEfGCvYIZ6JMlahPAaB4rAnxDxQf5wP39ZKx8UQv7rMCu/2oMMWWuhrEcOeApxHggDufBZIuslHPaWCJ5ARvAP7xxYuTDeXFil7f+eH2K/M0zIhCsYyZBHutqQJTGQGEAMIQYRbXB93Af3wsPh1Q9WJ5yBewyN47s94Smhg/CIcIPQRbg9SVAs/inKCNAF9YMUuUj/MRe4JdR0xf1xb6gOlXEdXB/Y4y7QDxP3hZ5dIctSxC3NCv0n7b+N4Ie3obAjO5JR8giyH9n6556qtqquwyrSXP+YH3ms6cP5Zg23/Oyf9UP2efAe9rMltgg7iJ3DTmEXsGNYA6BjzVgj1oYdl+Lh2fVENruGvMXK4smBOoJ/+Bt6s9JM5jvWOPY6fpG3FfCnSb/RgDVZNF0syMwqoDPhjsCns4Vch1F0J0cnFwCk+4v88/UmRrZvIDpt37n5fwDg3Tw4OHj0OxfaDMB+d7j8j3znrBlw61AG4PwRrkRcKOekGxYgwK+EGlxpesAImAFrOB4n4Aa8gB8IBKEgCsSDZDARRp8F57kYTAUzwTxQAsrAcrAGbACbwTawC+wFB0ADOAZOgbPgErgCboC7cPZ0gxegH7wDnxEEISFUhIboIcaIBWKHOCEMxAcJRMKRWCQZSUMyESEiQWYi85EyZCWyAdmKVCP7kSPIKeQC0oHcRh4ivchr5BOKoSqoFmqIWqKjUQbKRMPQeHQCmolOQYvQBehSdB1ahe5B69FT6CX0BtqFvkAHMIApYzqYCWaPMTAWFoWlYBmYGJuNlWLlWBVWizXB93wN68L6sI84EafhdNwezuAQPAHn4lPw2fgSfAO+C6/HW/Fr+EO8H/9GoBIMCHYETwKbMI6QSZhKKCGUE3YQDhPOwLXUTXhHJBJ1iFZEd7gWk4nZxBnEJcSNxDriSWIH8TFxgEQi6ZHsSN6kKBKHVEAqIa0n7SE1k66SukkflJSVjJWclIKUUpSESsVK5Uq7lU4oXVV6pvSZrE62IHuSo8g88nTyMvJ2chP5Mrmb/JmiQbGieFPiKdmUeZR1lFrKGco9yhtlZWVTZQ/lGGWB8lzldcr7lM8rP1T+qKKpYqvCUklVkagsVdmpclLltsobKpVqSfWjplALqEup1dTT1AfUD6o0VQdVtipPdY5qhWq96lXVl2pkNQs1ptpEtSK1crWDapfV+tTJ6pbqLHWO+mz1CvUj6p3qAxo0jTEaURp5Gks0dmtc0OjRJGlaagZq8jQXaG7TPK35mIbRzGgsGpc2n7addobWrUXUstJia2VrlWnt1WrX6tfW1HbRTtSepl2hfVy7SwfTsdRh6+TqLNM5oHNT59MIwxHMEfwRi0fUjrg64r3uSF0/Xb5uqW6d7g3dT3p0vUC9HL0Veg169/VxfVv9GP2p+pv0z+j3jdQa6TWSO7J05IGRdwxQA1uDWIMZBtsM2gwGDI0Mgw1FhusNTxv2GekY+RllG602OmHUa0wz9jEWGK82bjZ+TtemM+m59HX0Vnq/iYFJiInEZKtJu8lnUyvTBNNi0zrT+2YUM4ZZhtlqsxazfnNj8wjzmeY15ncsyBYMiyyLtRbnLN5bWlkmWS60bLDssdK1YlsVWdVY3bOmWvtaT7Gusr5uQ7Rh2OTYbLS5Yovautpm2VbYXrZD7dzsBHYb7TpGEUZ5jBKOqhrVaa9iz7QvtK+xf+ig4xDuUOzQ4PBytPnolNErRp8b/c3R1THXcbvj3TGaY0LHFI9pGvPaydaJ61ThdN2Z6hzkPMe50fmVi50L32WTyy1XmmuE60LXFtevbu5uYrdat153c/c090r3ToYWI5qxhHHeg+Dh7zHH45jHR083zwLPA55/edl75Xjt9uoZazWWP3b72Mfept4c763eXT50nzSfLT5dvia+HN8q30d+Zn48vx1+z5g2zGzmHuZLf0d/sf9h//csT9Ys1skALCA4oDSgPVAzMCFwQ+CDINOgzKCaoP5g1+AZwSdDCCFhIStCOtmGbC67mt0f6h46K7Q1TCUsLmxD2KNw23BxeFMEGhEasSriXqRFpDCyIQpEsaNWRd2PtoqeEn00hhgTHVMR8zR2TOzM2HNxtLhJcbvj3sX7xy+Lv5tgnSBJaElUS0xNrE58nxSQtDKpa9zocbPGXUrWTxYkN6aQUhJTdqQMjA8cv2Z8d6praknqzQlWE6ZNuDBRf2LuxOOT1CZxJh1MI6Qlpe1O+8KJ4lRxBtLZ6ZXp/VwWdy33Bc+Pt5rXy/fmr+Q/y/DOWJnRk+mduSqzN8s3qzyrT8ASbBC8yg7J3pz9PicqZ2fOYG5Sbl2eUl5a3hGhpjBH2DrZaPK0yR0iO1GJqGuK55Q1U/rFYeId+Uj+hPzGAi34I98msZb8InlY6FNYUfhhauLUg9M0pgmntU23nb54+rOioKLfZuAzuDNaZprMnDfz4SzmrK2zkdnps1vmmM1ZMKd7bvDcXfMo83Lm/V7sWLyy+O38pPlNCwwXzF3w+JfgX2pKVEvEJZ0LvRZuXoQvEixqX+y8eP3ib6W80otljmXlZV+WcJdc/HXMr+t+HVyasbR9mduyTcuJy4XLb67wXbFrpcbKopWPV0Wsql9NX126+u2aSWsulLuUb15LWStZ27UufF3jevP1y9d/2ZC14UaFf0VdpUHl4sr3G3kbr27y21S72XBz2eZPWwRbbm0N3lpfZVlVvo24rXDb0+2J28/9xviteof+jrIdX3cKd3btit3VWu1eXb3bYPeyGrRGUtO7J3XPlb0Bextr7Wu31unUle0D+yT7nu9P23/zQNiBloOMg7WHLA5VHqYdLq1H6qfX9zdkNXQ1Jjd2HAk90tLk1XT4qMPRncdMjlUc1z6+7ATlxIITg81FzQMnRSf7TmWeetwyqeXu6XGnr7fGtLafCTtz/mzQ2dPnmOeaz3ufP3bB88KRi4yLDZfcLtW3ubYd/t3198Ptbu31l90vN17xuNLUMbbjxFXfq6euBVw7e519/dKNyBsdNxNu3upM7ey6xbvVczv39qs7hXc+3517j3Cv9L76/fIHBg+q/rD5o67Lrev4w4CHbY/iHt19zH384kn+ky/dC55Sn5Y/M35W3ePUc6w3qPfK8/HPu1+IXnzuK/lT48/Kl9YvD/3l91db/7j+7lfiV4Ovl7zRe7PzrcvbloHogQfv8t59fl/6Qe/Dro+Mj+c+JX169nnqF9KXdV9tvjZ9C/t2bzBvcFDEEXNkvwIYrGhGBgCvdwJATQaABs9nlPHy85+sIPIzqwyB/4TlZ0RZcQOgFv6/x/TBv5tOAPZth8cvqK+WCkA0FYB4D4A6Ow/XobOa7FwpLUR4DtgS9TU9Lx38myI/c/4Q9893IFV1AT/f/wVg+XwpmKqHZQAAADhlWElmTU0AKgAAAAgAAYdpAAQAAAABAAAAGgAAAAAAAqACAAQAAAABAAAAZKADAAQAAAABAAAAZAAAAAAMc/x7AAARLklEQVR4Ae1dXZAU1RXu7l1AISZGRfwpNRXQEJAgxj+Qn92dTVKmQpWVsGspyi5apQ8pgYdU8pIqlockr66VF3lQXEgE1lIUYlK4u7O6QUtFIKK4IETBsnAXsEoQK8BM35yfe/r23+zOsMNO9zI9TJ97zz333HO/r2/3memexbKqWxWBKgJVBKoIVBG4wAi01g8+2po5fucFHuaid++UgMDtlsq/09pwrKO1bvCaEvpVTUtAoBRCwK1tW5Z6xLKtg60NA21P3vfJhBLGqpoWgUCJhGiPtjUJyFl98sx39y7PHPtVEeNUTYpE4PwI8Xixb1ZKbW2pP/b68syJGUWOWTUbAoERESJ+bVs1uiq3Z3nmy/al9534ruirsnQEykIIDmtb9jilnBXjzub6YcU83tamyua79Gmlt0f5QVP2tbBinvm0b+CdZZmBuemFpjKRl58QPQ9bOXc4ytpRTZNLI/aCEcJhVNPk0uiwrAtMiCyXappcLDGjQ4jHSzVNHo6YUSVEgqmmyYJEVFaEEAyjmiZHyUBNxQjxwtFp8md9x3a01h2f7ukv0kLlCRHglXWPqnEzUr1YZXIIiWGgqUmNj1GnXtU0c3PBedUmeXbfOTH4WGvDYL3r1P6uo+uKI0mOtZjY6uqytbY6/eiAUj8H+yVxfRK9QlzbxvianHxuH95/aa379JK4SaRB17DwtQYrd3q3UtYzjrKvLBRzognxgtb3X5QzaS+smCZPn4LCwoVbbqhfsLXDtdxuSKFuHS7kRJ+ywsHD7cppoNsM3491K5Vb+Xz22o/CNkmpL/7p1omnJlm/t5T1B2XbZmXDEoG7rgXDTMcKiYSvMpbt7Mb7L483fvW9SHOFFYsWbV18cqK1D++qwl1vJoN40EQU5iMBn0POEzz5YHk2nzvUmhlcCRlZzXm6Klu3hQtfm1O3YFufrexXbdu+yXMsqwIlvO281xIppHSF+OZhqythkk9NPD74bkv9wL2+llEr/mLuv65YtHBru63c9+AriPnewJoAOkMhEcCHjbohtlRdQ8w8zKS8kq1uh8Ovr6Vh4EXl5CFNvu6Isb8wJUljz7i5P8GKvQrI4E1Ap+CACNQGdK42jIqUrRCcoeIDLlTSU4O5u01wSoA0+egFTZP9aSwgfhWNT+HpQwRXBESKq4LI8KRu1wGHRQoIoZngrDQRpm4mIzrWKEiTXUutdp1L9j7ScLSsaXLBNJZWAMSBEsmgkEzdIwVnoQqvkMSfsnBeGmYpxNaZrpCJ5U6DJbN5WcMX3XBLeURp8tBpLIxLgWoiCHSJBQnAskgopuOiTlHLLLTEyFEvbVLmOteQCmnHbkEbrMMrk7fzux/JfNHe1Hio5DQ5Po2FcWg14JBIBL9pfApH2kUaO4yy0Fb0KQuG+yc4+bKQo/PXY/RBSIO+uJ0mSpZszT2wDbegDWuICGrBOpzPx8GpYsUEd3z/ww1HlhfzmBKlsfO3vRlIY4kEPS6SACPQ6QlHojBQ+sscDRFGRTQqvBVNyPPZyf/I17rwSVmtgfHOFHZZTAtFDoYCq9QLr2UDr0xI+kidvRk7jCNqAwDig+LPHnzj8/eW1h+OTZMDaaxjLUBPtCHQuBHgmghdFh0NiTuyZRm5nliFryFFE4JxrN9+zel1PVPaaix7tu0qXDElbAacaCneDYYdBBjtpLf0EQvU4ybtUjc6ttR1SJOBnL6lDYdXoUa2zILXZpypzR2CNHYFPDPDHzZDoCPA9HmC9NgTFDQcSl0GGbHDNjIvEyHsDQ6v7OT9z/VO+aXjqJ/Bs73wFUGhDQPgd1yJe5mWQl7Eh541+QzTYGzEi4yLltjqG0eKdCbL4/dj3pavyV8N56HLSUHggjHZ+wBGBepIYlneqEI7fvMqYV3AtvCJYGRfnTzbNaVrwsmrb4MJrILBT2KIvGG0fgi4TkGRQbAu1tHjhteIdkoemQijYZ/oATfxZMYWnW6CqhlbenFf3z4MMHSmFYFOqDtKfxmH1kSgGxpDyxg7NCm0lXTKinOy9n373Lruq9tzOWc6PE2yVinXpZgNAr5u3CIKBtevi1IiNgwx9hR7lLKJFbd6Nn4wdD/TW0riQ8uclggw9DHnf9CTP+hHXVFqH2Trb9dtYocdtC3500PEiRETIk439E0++lz3lCdc5d6trPxbotfRQxWjw715kUJrpd3o/CWaGSjYB7cYP+KZ2gk0MeV+prcpiQ+WoT0CTKawI3+6HwqMgcDFItsFrie+NraNsUM3BbayESL+1/det7Oj59r5EGyLslxKk3k6DKDYUbAEMM0S1CKNBX+C8uvDnrhuJo59jU6sjU58i038qIHTExGAbqEPvbk87HWChkDC+O31JX/RM4FEVnZC2LGt4OZRh6p1pgEpa+DCr9NkAQIlb+Y4F01Ych+hk3tqP1rQZDURcdYykp8YGTdKCZyzyAnsPBKwDF40uMEvC8WO2wN22AcVntTl/KgTgoFwmtzRc31bTW1+FkS1jbUYn3mxDiPGdzT9kBZuxwnhG82lBX1Jq5RAQZvUUaKNeZGi0M4/BnWFHZJBTrjMcWAZHft0oODrhE8X8IcdCm8XaIUEB1z3+g2fADGLIaeDNNnVaTLNBAyHClBnWd6E0C/3M71NiUcN1sWaaWML8RE7Nl3UoReOiWOBRIDpNObFgXpsph2XQVHQTvuh0aHPUHfSRoUQgaGj6/quS08O3KZsBWmypdNknlQQMN0DFww2007ssKaB4EZtLDqx5tWgHQR86A7aT8zpg1yFAMZOHgF6LM8ObaFCbzIM2gbsZPR4OaqEYAhr37/j3IbuG9pVLj8dviZf68KSwXgZuBhwPPjDAEsfmq32MJQNmdA4bMWjitYv6UKMZBMB2EWXaSgss47ssEy2Ik272GF/L2sj27h5Yv8KPtu7oe8HR4GYJ+AZpbuBkrcp+NAlhE9YNHuOlvZSJySgm3kZo6ANAmZeYiU2UmdJ9yPkSI8QAX1QB96GvU7ovnjdodUDffAf9Q/Nk0fm/aivEP/gWF7fe+POm+tunA+APZZ37MFwO9cZBJ6RnpeG2NgHbdDKvMQqagN3GKVRS8yywI7eoNIEEJiwK3idkD7oBcoeEX4/nk14TD00iETcoGprszHCZ01YUjKBI5QwU2nQMlxHi7Auvi7ayMGKF3VEE8HDjYR/RbDaa0cDcaaJ8Np0X78fz1a7CYtEEBIOyl+PAoytgoBYhq3C7dwnqJWaSPGF7kFHaiFC68hE2nw6jwg00P5ChIo/lJQ+k6/oruKnrGhIRuOMn7gOol8DcP+PJ4qT1RMGaV7Sx9+OOq6znakbH9IvJAlMIQN86LpHFNZ9bwI4YIPtOLzYcRlPd/AhuQfsnwyN6FUTvULw/gtE2vZw3cEN8OD1n/GJEpxncAtruB7UBmuMVtCLv2Yu2FpLYENZJKqhbIjAOilDknVEhKs+V476Y3d/awdqC22JXiES9IbeaQf/np3a7FpOIwABz/Pi7OWNVlyWlUDYeO1cExuU0tOUZCSUclFHt2BJJIhkHae7WkfOpEwVHgpGoezKtb4FuSZ3xr2l6+OhycDRU0EIBorbxuzU7stOnZwDRxzef/mawfXDqgEhyLGHqceV0CKyBT6pQyuRwpKJCOpoDHSOY9EgKPl0p/LuNteumbG9v6Wt97PlcNodfkv0KWtp3QH6009/673F+x4MP1jCtNofzPx3o+We/Qt8hmmxHfodiW+2hJBHCyPla/a1xF5iBVjsQisErMgl+xUduwGdtIHk05i7W7nOiq4Drf/2j1pMOdErJG+pm1zb2vpQ/f6uB+s/memf0AvdPxx4ITv9UatG3QmI7GBUEBlZMVzWaOmuouMqW9KS8LuGLmgHGx7pIOjUg6hTd7/UZWggwpT6ynLVqsv7J97ZdWBZyWTgkIkmBANE0ODTSAZ+8LK7ub4/8lzVpp4ZuzZmpy+A32A0wwOBR4QO7MsboQhFlOwPbdiOVNEdnXL0NQDJIRco9RsVqIMdncZcNwdNa3PuuB+9vr+lvdNqjny8iQ4Sr0k8IRoNOFLVOAh2RU3u7KEH6vpDPz+w1aae6Z3jJ5ydAbeR1wCFvjRZPIRJQEQJ1Qgy+mjXHbWdJoC6eIRB3odprO3M6epf9kTvgYeOR5yVqEgBITIjBga+kLwSDsunnMF978KKCTxXtX777NMbe2a2KWXPAutOsxIITXDEPvxEmO8C9Dg5PIWBHa4Gkih0XUskDK5dnwPxLd39LZntHy/7UPcesUg4IbjyGRj/nnSODc9V5fseqP9oc1PjRzf6kejsnXlwc3Zms2PZjfBlsi9NZishquBpi4DHoYUILuuVU1Ia64+rmHLCCQnSYSbE9EAdr7lNVk7ta27YG/n5wcbszO7vnzo7B3ClNFmICPqJrJEgEXBA0HUCJKextSWlsWas4kqJJ4QpwckICSilxhDDE4aTLGWv/tY+tfeBhg+ayEDvME3u7J3Vfq5m3FSwfhqOelh24stv6SvTEJoIMoU0Nm8vgDR2cc/HSw/7LMteTDghePQa8LjEJLAe8ZB2lPY0uH5sbqr/oOs39XsCafLL3T8+8WJ29krHse6CPpQmo6fYDZaUvk6MOI2N9T+EMuGEcORMgQCPOikbQMVGg5yBZ3N3L6n/D6TJOwM/P9jUM3tXZ3Y2pMkK0mR1xBCrUYJrOvxWkNJYSCBuGWkaq70WLRJNCK8PA7ohQuZnaGCNIQouLuPgvULlavYvadgT+vmBrV7smdN5LnfprZbrbBJvKB2lDqu88xNMYyGDOuFvG40yXhQTuzXXffhbOFz/GgxQr4GA0k8aNnDdaOEU5KpdcEdyxUvZOXC6Su6W6BXihy28FsxqEdhRipWfEtDjP9u+3VFu35L6XZAm7wykyf5xKl1OOCHw0039YqAYdIFbdGwjWm3j/yyBjJAf+ByvrKb8OWvfkrr3IU3Omj95UWkm9PgJJwSjHIoEpMJn45FgdKa3KcFfWZgEPVefsi774NcNuxaSi4TsUkCIIMWAymoIECVY+8gTa2MX9IM1sLnZdvPN0pIEmej7IfysL/5Kw7/pmqf0Cr7V4rfHsrHhWrAetq5kPdGE4DdZnAZqAD0cvYIPaqNjQIN1ObkFwQ7aBNsqU0s0IQQJXhe8jctGY0psEqyHreNsPNcJKSSfkMgaCIIeBrlYEmTF5PUaTAgfyXhysTAYmPbiSWtoErC/ABz0Fe4XtsL28765FxyqTLVUrZAwMWF4GZPhSECrsE2Z0CyDm5QRIlCGAY3WwxrpaTCLWpi2ypVSQIhAGQYwXEe7sC6+HtZWDv7oyIkmBJ40ibnkhuEM0xBux0kXYxMFpxKaRBNiAAmDHAYYLaM2QW243XhPUikFhAiQ50NCkJIkAV8olsQTEqVBCJIpcT2oDdbEMg0y4YTIlydxAIepirNJAwXBGBP9ba+ynB3wlMh+EzKCjkQIGVyPXj9Mj7SVEk3Ilt679kz+phafQlwFf9Tma4GfCcDa2NsSTQjCjc9Vbem9p92prZkK3zM+DT8JS9Z3HWU+JhJPiMz35e67T7zyxtyVNTX2XfAnuRL9oILEfD4yNYTI5F7qmbvrlTfvXQAPsjXDpeSI6MeKTB0hDLytXn5jXue3EybB/+GOPz+wivq5WBpISykhDO12+PnBlt5724CQWfAdS2caAB8uxlQTIpN7tXfewS3Zec1ASiOcyuDnB+ndxgQhAj+Q0j35m/FzoL4KsjH4lW76tjFFCMLPafI8SJNrIU22IU1O2C3BYY6RMUeIzDetafKYJUSISVuaPOYJYWKCaTJ8fhnhfyYgdJdfXiSEMHCSJsMfI7h1rKTJ5T8kKujx/kVv33d/3VsrKxhCdegqAlUESkLg/2o3xwI22YmHAAAAAElFTkSuQmCC;" vertex="1" parent="1">
          <mxGeometry x="375" y="-80" width="100" height="100" as="geometry" />
        </mxCell>
        <mxCell id="qDFJ__rZfRqTDLemH5My-31" style="edgeStyle=orthogonalEdgeStyle;rounded=0;orthogonalLoop=1;jettySize=auto;html=1;" edge="1" parent="1" source="qDFJ__rZfRqTDLemH5My-30" target="qDFJ__rZfRqTDLemH5My-28">
          <mxGeometry relative="1" as="geometry" />
        </mxCell>
        <mxCell id="qDFJ__rZfRqTDLemH5My-30" value="users" style="sketch=0;outlineConnect=0;gradientColor=none;fontColor=#545B64;strokeColor=none;fillColor=#879196;dashed=0;verticalLabelPosition=bottom;verticalAlign=top;align=center;html=1;fontSize=12;fontStyle=0;aspect=fixed;shape=mxgraph.aws4.illustration_users;pointerEvents=1" vertex="1" parent="1">
          <mxGeometry x="40" y="-80" width="100" height="100" as="geometry" />
        </mxCell>
        <mxCell id="qDFJ__rZfRqTDLemH5My-34" style="edgeStyle=orthogonalEdgeStyle;rounded=0;orthogonalLoop=1;jettySize=auto;html=1;entryX=1;entryY=0.5;entryDx=0;entryDy=0;exitX=1;exitY=0.5;exitDx=0;exitDy=0;" edge="1" parent="1" source="qDFJ__rZfRqTDLemH5My-32" target="qDFJ__rZfRqTDLemH5My-17">
          <mxGeometry relative="1" as="geometry">
            <mxPoint x="751" y="-30" as="sourcePoint" />
            <Array as="points">
              <mxPoint x="1060" y="-30" />
              <mxPoint x="1060" y="370" />
            </Array>
          </mxGeometry>
        </mxCell>
        <mxCell id="qDFJ__rZfRqTDLemH5My-32" value="" style="shape=image;verticalLabelPosition=bottom;labelBackgroundColor=default;verticalAlign=top;aspect=fixed;imageAspect=0;image=data:image/png,iVBORw0KGgoAAAANSUhEUgAAAGQAAABkCAYAAABw4pVUAAAMQGlDQ1BJQ0MgUHJvZmlsZQAASImVVwdYU8kWnluSkEBoAQSkhN4EkRpASggt9I4gKiEJEEqMgaBiRxcVXLtYwIauiihYAbGgiJ1FsWFfLCgo62LBrrxJAV33le/N9829//3nzH/OnDtz5w4Aaic5IlEuqg5AnrBAHBvsTx+XnEIn9QAE4ADAqy6Hmy9iRkeHwycwdP97eXcT2sFyzV6q9c/2/1o0ePx8LnQUDXE6L5+bB/EhAPBKrkhcAABRyptNLRBJMaxASwwDhHiRFGfKcaUUp8vxPplNfCwL4lYAlFQ4HHEmAKpXIE8v5GZCDdV+iB2FPIEQADU6xD55eZN5EKdBbA1tRBBL9RnpP+hk/k0zfViTw8kcxvKxyIpSgCBflMuZ/n+m43+XvFzJkA9LWFWyxCGx0jHDvN3KmRwmxSoQ9wnTI6Mg1oT4g4Ans4cYpWRJQhLk9qgBN58FcwZ0IHbkcQLCIDaAOEiYGxmu4NMzBEFsiOEMQacJCtjxEOtCvIifHxinsNkinhyr8IXWZ4hZTAV/niOW+ZX6eiDJSWAq9F9n8dkKfUy1KCs+CWIKxOaFgsRIiFUhdsjPiQtT2IwtymJFDtmIJbHS+M0hjuULg/3l+lhhhjgoVmFfmpc/NF5sS5aAHanABwqy4kPk+cFauRxZ/HAs2BW+kJkwpMPPHxc+NBYePyBQPnashy9MiFPofBAV+MfK++IUUW60wh435ecGS3lTiF3yC+MUffHEAjgh5fp4hqggOl4eJ16UzQmNlseDLwfhgAUCAB1IYE0Hk0E2ELT3NfTBJ3lLEOAAMcgEfGCvYIZ6JMlahPAaB4rAnxDxQf5wP39ZKx8UQv7rMCu/2oMMWWuhrEcOeApxHggDufBZIuslHPaWCJ5ARvAP7xxYuTDeXFil7f+eH2K/M0zIhCsYyZBHutqQJTGQGEAMIQYRbXB93Af3wsPh1Q9WJ5yBewyN47s94Smhg/CIcIPQRbg9SVAs/inKCNAF9YMUuUj/MRe4JdR0xf1xb6gOlXEdXB/Y4y7QDxP3hZ5dIctSxC3NCv0n7b+N4Ie3obAjO5JR8giyH9n6556qtqquwyrSXP+YH3ms6cP5Zg23/Oyf9UP2efAe9rMltgg7iJ3DTmEXsGNYA6BjzVgj1oYdl+Lh2fVENruGvMXK4smBOoJ/+Bt6s9JM5jvWOPY6fpG3FfCnSb/RgDVZNF0syMwqoDPhjsCns4Vch1F0J0cnFwCk+4v88/UmRrZvIDpt37n5fwDg3Tw4OHj0OxfaDMB+d7j8j3znrBlw61AG4PwRrkRcKOekGxYgwK+EGlxpesAImAFrOB4n4Aa8gB8IBKEgCsSDZDARRp8F57kYTAUzwTxQAsrAcrAGbACbwTawC+wFB0ADOAZOgbPgErgCboC7cPZ0gxegH7wDnxEEISFUhIboIcaIBWKHOCEMxAcJRMKRWCQZSUMyESEiQWYi85EyZCWyAdmKVCP7kSPIKeQC0oHcRh4ivchr5BOKoSqoFmqIWqKjUQbKRMPQeHQCmolOQYvQBehSdB1ahe5B69FT6CX0BtqFvkAHMIApYzqYCWaPMTAWFoWlYBmYGJuNlWLlWBVWizXB93wN68L6sI84EafhdNwezuAQPAHn4lPw2fgSfAO+C6/HW/Fr+EO8H/9GoBIMCHYETwKbMI6QSZhKKCGUE3YQDhPOwLXUTXhHJBJ1iFZEd7gWk4nZxBnEJcSNxDriSWIH8TFxgEQi6ZHsSN6kKBKHVEAqIa0n7SE1k66SukkflJSVjJWclIKUUpSESsVK5Uq7lU4oXVV6pvSZrE62IHuSo8g88nTyMvJ2chP5Mrmb/JmiQbGieFPiKdmUeZR1lFrKGco9yhtlZWVTZQ/lGGWB8lzldcr7lM8rP1T+qKKpYqvCUklVkagsVdmpclLltsobKpVqSfWjplALqEup1dTT1AfUD6o0VQdVtipPdY5qhWq96lXVl2pkNQs1ptpEtSK1crWDapfV+tTJ6pbqLHWO+mz1CvUj6p3qAxo0jTEaURp5Gks0dmtc0OjRJGlaagZq8jQXaG7TPK35mIbRzGgsGpc2n7addobWrUXUstJia2VrlWnt1WrX6tfW1HbRTtSepl2hfVy7SwfTsdRh6+TqLNM5oHNT59MIwxHMEfwRi0fUjrg64r3uSF0/Xb5uqW6d7g3dT3p0vUC9HL0Veg169/VxfVv9GP2p+pv0z+j3jdQa6TWSO7J05IGRdwxQA1uDWIMZBtsM2gwGDI0Mgw1FhusNTxv2GekY+RllG602OmHUa0wz9jEWGK82bjZ+TtemM+m59HX0Vnq/iYFJiInEZKtJu8lnUyvTBNNi0zrT+2YUM4ZZhtlqsxazfnNj8wjzmeY15ncsyBYMiyyLtRbnLN5bWlkmWS60bLDssdK1YlsVWdVY3bOmWvtaT7Gusr5uQ7Rh2OTYbLS5Yovautpm2VbYXrZD7dzsBHYb7TpGEUZ5jBKOqhrVaa9iz7QvtK+xf+ig4xDuUOzQ4PBytPnolNErRp8b/c3R1THXcbvj3TGaY0LHFI9pGvPaydaJ61ThdN2Z6hzkPMe50fmVi50L32WTyy1XmmuE60LXFtevbu5uYrdat153c/c090r3ToYWI5qxhHHeg+Dh7zHH45jHR083zwLPA55/edl75Xjt9uoZazWWP3b72Mfept4c763eXT50nzSfLT5dvia+HN8q30d+Zn48vx1+z5g2zGzmHuZLf0d/sf9h//csT9Ys1skALCA4oDSgPVAzMCFwQ+CDINOgzKCaoP5g1+AZwSdDCCFhIStCOtmGbC67mt0f6h46K7Q1TCUsLmxD2KNw23BxeFMEGhEasSriXqRFpDCyIQpEsaNWRd2PtoqeEn00hhgTHVMR8zR2TOzM2HNxtLhJcbvj3sX7xy+Lv5tgnSBJaElUS0xNrE58nxSQtDKpa9zocbPGXUrWTxYkN6aQUhJTdqQMjA8cv2Z8d6praknqzQlWE6ZNuDBRf2LuxOOT1CZxJh1MI6Qlpe1O+8KJ4lRxBtLZ6ZXp/VwWdy33Bc+Pt5rXy/fmr+Q/y/DOWJnRk+mduSqzN8s3qzyrT8ASbBC8yg7J3pz9PicqZ2fOYG5Sbl2eUl5a3hGhpjBH2DrZaPK0yR0iO1GJqGuK55Q1U/rFYeId+Uj+hPzGAi34I98msZb8InlY6FNYUfhhauLUg9M0pgmntU23nb54+rOioKLfZuAzuDNaZprMnDfz4SzmrK2zkdnps1vmmM1ZMKd7bvDcXfMo83Lm/V7sWLyy+O38pPlNCwwXzF3w+JfgX2pKVEvEJZ0LvRZuXoQvEixqX+y8eP3ib6W80otljmXlZV+WcJdc/HXMr+t+HVyasbR9mduyTcuJy4XLb67wXbFrpcbKopWPV0Wsql9NX126+u2aSWsulLuUb15LWStZ27UufF3jevP1y9d/2ZC14UaFf0VdpUHl4sr3G3kbr27y21S72XBz2eZPWwRbbm0N3lpfZVlVvo24rXDb0+2J28/9xviteof+jrIdX3cKd3btit3VWu1eXb3bYPeyGrRGUtO7J3XPlb0Bextr7Wu31unUle0D+yT7nu9P23/zQNiBloOMg7WHLA5VHqYdLq1H6qfX9zdkNXQ1Jjd2HAk90tLk1XT4qMPRncdMjlUc1z6+7ATlxIITg81FzQMnRSf7TmWeetwyqeXu6XGnr7fGtLafCTtz/mzQ2dPnmOeaz3ufP3bB88KRi4yLDZfcLtW3ubYd/t3198Ptbu31l90vN17xuNLUMbbjxFXfq6euBVw7e519/dKNyBsdNxNu3upM7ey6xbvVczv39qs7hXc+3517j3Cv9L76/fIHBg+q/rD5o67Lrev4w4CHbY/iHt19zH384kn+ky/dC55Sn5Y/M35W3ePUc6w3qPfK8/HPu1+IXnzuK/lT48/Kl9YvD/3l91db/7j+7lfiV4Ovl7zRe7PzrcvbloHogQfv8t59fl/6Qe/Dro+Mj+c+JX169nnqF9KXdV9tvjZ9C/t2bzBvcFDEEXNkvwIYrGhGBgCvdwJATQaABs9nlPHy85+sIPIzqwyB/4TlZ0RZcQOgFv6/x/TBv5tOAPZth8cvqK+WCkA0FYB4D4A6Ow/XobOa7FwpLUR4DtgS9TU9Lx38myI/c/4Q9893IFV1AT/f/wVg+XwpmKqHZQAAADhlWElmTU0AKgAAAAgAAYdpAAQAAAABAAAAGgAAAAAAAqACAAQAAAABAAAAZKADAAQAAAABAAAAZAAAAAAMc/x7AAAUfklEQVR4Ae1ce3RVxbmfmX2Sk/AQCsUXKq+QoIEkNC4VScIBvBZUlNJrdd0rdNXa+rqr69a77r3arqX2umr1j3t1ca8WdHlr9dpbH1UrCnLlEZIAtTWSBKgmJzyKASkt8hLyOGfP3N+3T/Y+sx/n5CQEfLCHtZmZb7759szvm/nmm5l9wlgYQgRCBEIEQgRCBEIEQgRCBEIEQgRCBEIEQgRCBEIEQgRCBEIEQgRCBEIEQgRCBEIEQgRCBEIEQgRCBEIEQgRCBEIEQgQ+YwTOr6wcctG0qq+gGXwgTcm50sWV1eclTfZ1pfilgrHpUrFxeOVZEDCcKdaJ/GEu+AHOVKNSbFOPkq/u2dpwKFujqPGFPYUX2zzCiJjHjWNt+xobT9i0XOLiaVUTTcYIBCvk5/N9HzTWf2znc4nHj48VRIeZxUmu8oifCyGjyYPbEXoy1Y/FYpGOT+Q1nKuFTInLFFPFnDOrPtVRSh0UnLcqxlqQXpsUxprdTbWHM8kjelaFEGBDk0MXA+Db8KLKvvhdL1LsBKQ/l+DivkyNmFxe8wzq3Oqqx9WOzsLktI7Nmztd9AyZorKaB9C2Bz3FkjF5Q7y54U0PPTBbWlqa3xX5aotgqkRnwOD6t7bm+gd0mp0uKq++hSn+CN491qb1HasuQP4rziL3tzWv2xvEj8EeHCaVxeYNTQzdjdJleOmliLMqzyeFsyGg3WFIc8vkiliFr5wEcvaRj674pILO/Ot89GACx2C5PaBIQPj3AuiBpO68UfO9yuhl/Iu3As2kSeVVv+GMP98/ZZAkXoD/bpUqsfGCGTMKvbIpn1EhjKvHoYIxQZX6Q8OUHa+kfHPC1Lnn+OopscZHA0GZam4Q3UubWFFTJAQ7z0unPExrFaLcBpHiVwXJYFKt1OlkovJGyDcFE4t0en/TnPNxhZ1R12y0ZUTshDfG0Bse2B3JjkohmwUzMOXUUawfUYzG0UrJafQirxzK00iKRJL/heSNenlb8ZjNRa37D6LeaJ3OBI+58hkyhgU6LHRAgCZGFZXPvKS9eeP2gGIXiSs+GwPQRcN6sDW+tWGnTtx7yLwPvckwWFQHl2qTMhjWLvEXpKXkajSkTuBMTEd7JuiyBOyWnrfTgUQqBIhYJ1NBMfkhRsXrIL7atnXDe6C6W9/LVzy9qlxJ8RCyC3pJ6UipRRjRk3c21cUd4ssvm6K8eiWELXZoSJD5ICeir4UZNn5mYEN6hXFm0CzJqhBr5vLEJfr7KQ0lvaHTxlfERjIp7/MNUqUOA+w721rqXwI/1q7gUDR1ziQmkrdwoRZj7YFyEvuCODMqBC9erhgfylTyhVxGGQlv29LQjOiG4vLqX6KuC2TQRUSpWxA/gMcJkosVmI1eXpZMiBiY/tdhDEiYjFdBeQElKRIpDKnlGRlQkCd6ZqOtwNQd4DH+VqfkKXkTMPHZfcXEknjLhhU6b1C6fdu6HaD/hJ5JZVeeHd+y6UAQX0aFxJvqfhpUIQeaEt35PzSjPTBP1iLmVJEA0MnYiWjXatUV7QEi+TbJirmKIc6okKLp1WNgFor1OlKp3bRm2bTA99mFvbHiMFeeAEdhb7zZsgTpEq7KMbLT+VTqQHvLhpw8Ob3ijpZgZRBP5kVdl9DP9Icfrj2IKb/aWw0zgVxnV2h/992j8NHrXERkMO5jXpqeF4rR6HcQgowkzOpjOg8KJ5RMn3m+TvOllfIpBGaFzJVr6nHJfXKgcNpnufh88vtJOCUKoTZIzt/3tYXzEZWVlXleOoD0TXmAWZwNTJgZUogThBDNMsJdXhEVmtJaRxw+PVFUFrsA1mqyTqO0lIZr/bBonGEP4Q5cyUkTK68a4aaeXO6UKQRexP6gph1ORJ0dtV2OdcCnECqTyojZPL5YMZf5U8xs2PF+bbuU5OWkA4avS3HpEqS4f3ZgWT7KTxSud/FZGf5HLw3eYUSYPUtBHzQcB02Qt7FKsmNeGuVVnqDNkSu0ttTtAvzbXERklLTWES+Z0aYKQH9NL1CSN1DeEMyK7TJ00KU4m04xZMzR85TmTL7d3r6q20sHd+Cggbe8BBvF2pKp1WX+Ov2nnJRCaNea6ZU438noAgbVga/uWxxhtmJBvAVdkctQ5nICTJlfT7zYP1ixXQ9rS1lJyczhdl6P0cTZep7SyhAu78oub2+u2wKnYY2d12OY3Gpp8Obi8pqNk8tnfae0dMYovbw/6YxelkeIKCqbdS2m+NXwYmZgGzwRo2skrRSTy2rozOog+HHMwNuQ3oKp/L6SJkwTYMsxmJytwEJ9r4sd9r24fM5Y77mPMMVMpW/klIrv2rb2z1ZdbtRjajliyKzIwsgVILzjEJGgA0l4WON0GryrRI+Uq3SanlaC34Xd2XswUGfpdDsNTK6ESq/sNiLJSWXVtRhkrxpG8retWzYG7jnsenrc5wyhQ7Si8po4RvwbgPcfMOIq8WJaB1Jop86sLkQeJkTdDGU9ij0qOs9/rr+or/SOprrfYXj7zo4kT8a8dbFRda8LnDuzIj55zFa04Yhep3c/opMwlIRvdmA3UpfthJo2tcBhEWbhpy5hnoy1tnB+FXifhIPwUVFFzYbiippv0yGmh9WXzagQMkdQxK+tQzTGJvpqDj4BRw38Lb9YHvPQqM0YiXpIrR8WBbt/jORNeilGvm8dAfg+hWBABZorXRZ25Gu5wXHUzt7V6VnSApO5Bm14tssY1VpcUb0wC2+wd0Cuad5I80VMgZuyVaayvkZLX/X18iBvC3Y+pvNg8ZwKVxXmMh1MrtwLufSsI0xdTgeD6Rpot/IrJCny3tB5MqXj79d9gDVlBmbANzD73gZf2kZmqgS6ddCq+GtFFbMezsQWOEOOJIfeg13p9cGV5DsYHTeZETku3lzH25vrhyM28pOJ0QaTJThlRT11P4BcH1w/M1V0mTB1yuPh8KJJU2vIJFrBFMJlrgDIftf5mMUlXArCLB/28RHmXAEUT4tNwQxxbfSgoKZdW9b9qfc1uUSqran+ddyXzE8kxViYqduxkcf6422/XxQ2yPdhTb7TX8L8J47FlbGvyqT8cQAz9KDuwqXPsoAyuX375k9Ap6cNzwqYu3cxwwLMQkDtXlJr68ZjuLSqRfbrOhdMRAz554mGUelSiOJu8Imn5yj/A47JoVgepTwFU5lktuhgFOuHmo22uQKO8fs0V64KWmb39lracz1FD3l0ZoExHw7K38F6XIcGGxprOsnVo1OmzH2JTjXSxIANjUzIG9BYn5uIDddT8eb6IGXo8pw0/Pk+FzCHWUtg5Pr8fcyCmM0Cp8K9Hki3uSK+3btruyRTv7frUAyPx1EkjLpvoOAKesAK0d9Dgwrm7KW2lrqFihnjgeUzermdJoyT0Z4ldt6OfSZLKHm1XajHwhA5K4Pq4WjDZed1WdnSCR7x7UcwNWNUh0wXTMM4vb5332GXYWC6zJY0nZkFi5GSZ/OisXsAYpOTH6REe0ttR1tz3W1w0X8YJBKDZI6X7lMIE+ICLxPycuxI5ttJB/A5JAj2nRFRYb4Z8b/TqcWYZcc5a9FI5F9PnFhZdZEhHFCtYijqWHvJuc06r50WJqu30xTDJJ1HdxJTptXAKXDfhML202IOcacmtDfVL6WTaK90uO+uwUXlPnAkk6P8FVmytrY26aVny2OGBM40UybPyVbPKpN+sxVJiBjcYsfsEB8UtYnBzQ2Sl8zP2wRXylUmIskqbEDnePlxMDko5sorV8tLwYVvQGO2+waBTyHQ0RFNkJVEx/PpUsVLz5Qvnh67CmVXBJXj85rRQXQ3TfrWEUz7GMawe/1g7nMrXcbOxjVHMCi26jQp1Uz0ZbZOg9IODxfHNrhopyCDtc+Pn1Qd3lf5FALCHi8T5Q1mZHCD3dx0yGYm5XNuqpaT3HE/NaorGW9p+AOsZOoopLcEu8Z5WNyn6YxBHpZejgHoMlvgr8G0qtF5pGCrGhsbEzotKE2fRIEOffY/ECZwVi711gTN8vp0uk8hUvH1OoOT5uyhKRWx8U7enxB0zAKzUk/22l+comCk/D1SfXUMGy3h2rVbMjUXEnO9p6uwO+tuGQpwKYTu6lHvK3rb8KFELuZKDEkM+RO+AeuYVF7zkHU/rgvJksaHFqWmwV8Diw9rZfBfe6v6gKFL/4hI7ARkNCK84QBMx89w37y6OyH35ykxjOepiUyKWTjQuxk28eJ0BfoojIBP7wXsMnhG87ChXG3ng2I6YsAmkzoSHJTaHG+p9xyhuFmtry2TfJ+bms6RUllB9xi6tUxT/amiyy8/i3dFdVMOR01tw63oWiZUM24O2wxT7k+o6HEe7Y6KJJllVSqkWoABugi4RLxScQP5P/hgZLGX7mOkU9OiiurH8bIfeZmRPxv0x+h7lCiGrBUk6RRdw/xzAn21KMRCeBbXgesHDr03gcbcjmRWhRTIwnc6eSeU6r6Xt2VJ5t8Q2mV2TF+tTC6vboeMIpumx1yy2ngfyiD+IZ0jzE5O48sJ6C2fhuE2je7ZCQkFPCIMlg8XyakAAyvA5VRJJ8jjykvk/WOakk7ZtdMUpEYYJx4cyNGHJQQnrWjctfGmDe9IM+9huoFzCUcGd9afemnefEvL/x2Hntd56XYeHXWZI5seEGfkg8nIxVwxqy2S+W4MA97VNwmfyqo8Ncu7Q7crBiqEFrkCNmQBoPPZOLtiUIwx8bYhjIr2ptpaKqfZpgT7ns2L9SOJO4ifyePDHJpdFhQD9OeD6JiPx6JmhrXOUwG2ZaWH1JtVXUomXgku81OTkcg12BK8ihKsbwMKaDZbZhrRyp2NDXsySQiaUS5enEldjan9T7CVs6Ag52zIZoKAQ3jTSjTzqfjWujqbrse4C7jbxDdSBr4KaWvaAA8q58BxCHcHFuOpsAwp80rmULHXMr0rQDJdov0AtuMSuwztTWDv8Xrblto1Ni3XuKSsZgI08k20Zz52ETMgtzBbXbxrF9bCV5RQT/sPQf01+1SIXYXcviGJ4WWwlmNgNAsA0nEuzR2tJee3Z9qc2XW/tPGNNxolrfuKYKLhzIizsfPGFyg4KZMKB4b8AG4LG/tzW/ilxSnsWIhAiECIQIhAiMCZiEDOXtaZCM5g9Fm9hHPZT1gJPNNxcNfpHG2YJZezTsR/BT3OOthu/iCzrjdChQwG6h4ZajmbAtLNeObhwVYh+14F5XRO9jaOpB7gahmbCy118u/jsicMJ4UAFEGXcg/jqRygoEaufs4OQCFjsONciSl1L479XJc6AxR8RlUDhmPR4aeB4/yT6rhix7h6il2PY49fQSFDIYzOaej86H4oJuN5y0m99EtYGTODMLsFD1107cXTgecQnsNWnFovkMQfFZDsHGBNM4jMmjecsNYQKKUCs4Mu+i+0OBR+nMLZE6j+KL/V/72tV8qZnlfPYTAn2Aj86n4/FuecDh+tpcL6sA4op8MOZ1FXT7Bz4Q+8BkVckS6HJ8DZLzEV/53fxnCvEIbBRAATYT0mQsyRKdkaYWf43fjFUxQfACj2gk1DXIj8HVj9WzEtX1FPu5SlsYXJASFgWq5vuqpg7zkzxKbi/oDjo8h/Rv6neHw3iqA1WByK/QbrzAm7Xhj7EbAGMP5ODAb11XjqMOSX6CYNg5wcqKlOTcWu9ynELrSESWu2TLRpnpj+isOLoP2C38E2e8rO2Kx6Eps/w/pDCLcBBNdXMsCrGFjFCRz1C1bAurH/4L2/BEut2+dmVIhVaSl+KRRlS5H+NuWzhA9Q9iwemjU7svB9KYusRf0Ew4fV7FsA/RrEBb6O4lINfybnm7iMx50VFLLc+j5sncOHcihrUVaF2MxYfOZDzHLkU16YXRAc0xd6b6BRr+Py9j27AcGsX1wqRvhIfLPyN+gB/kACuxZP0Fc61EH6fuBe9n32pI4FMH0EmP4rMfSGb2Ewv5yTQqiCSs2Wh5C8C0/Q2kJs3rAXilkB4hrEDfiDSX/2MnxR8upB+JrnWr/8nYfUPIB5OdreFw7rwftd9HuXt5+YIWRJUsuBQvl+mDOcZ+WsEFsgBNHnL0vRoJhNyzlW+O0IFAP+OjwNn2fzhn4OQR8vRXur0NYrkab781E59pU2hT/GrKC/NWaZKL0e9iAkN/1tgWJ3wlwtI55+K8QWjClHO/yHIaHUpg0g/ivqkKfxRzR7GxbD7dhgbcNvXalDpy2oZ/BrqqTl7ZSjP1PRFlqMyfvJ62cj6AT3P7FNeCRbH6DsR8H3L72y41jWy/h3Un8pYsAKIWHW0fIhHBko9iN0pLj3BYMRfQwhu/F8DLl7rVgiFmwf8gegtE8Rd+O9J7BT6rQ7Az4nqP9ASQH+5cHWJ3FWZ7DRGECjUW8MmMbjmWA9CnHq2AjZAQc6On8W7fsJzFNHNim9mJEJo/WYdvWzYCnIaljhpBRiC7Hs6/nsbwHQvaBNt+mnNVbsOIDtwTvpzuF0BVqwn8d7H8dpeVsuL4W5mgf+Vb28j0EZ9+j1BkUhukCYsllQzN2gfQNPX4ueXvWLlKYF+Qk8/w1A6S4j5wB8XgY+NHhXQzELUJ8OJJ0w6AqxJVtH0gZbghcvBu1im/4FjslMrkB/XoAhXQWPKKdDRG9/MUOOQk4d5vON/B7P0QmYT5lC9IZYXgX95p2zhaAX6WWf8zQdrr4F6F/EavVWEID9bT8OcS/ExqEjyPsiWadFIXqjMXOmYoFdgJE2F89MtMC/q9UrnN40fryL3zdynMJyfOhdwNbzJRjLpzGcdoXofbM8oeHw7034+ZxdhjLabJ2t85zSNP4aNzyjJsyAZryHDk1rYdPJFf/MwmeqkKBew0c/D8CUAiRad+hW7SLkx1kxfikRVKcPGnlCezDyPwL4HZC7G3n8gRrWzO+00n1UP73FnzuFZOs+jm+iMHd0mjoKSqK/Kzy8l38IgO4BndzeI9h3pPYoBjvYXy8o2/vDshCBEIEQgRCBEIEQgRCBEIEQgRCBEIEQgRCBEIEQgRCBEIEQgRCBEIEQgRCBEIEQgZNH4P8BoieNXdjFSmEAAAAASUVORK5CYII=;" vertex="1" parent="1">
          <mxGeometry x="650" y="-80" width="100" height="100" as="geometry" />
        </mxCell>
        <mxCell id="qDFJ__rZfRqTDLemH5My-36" value="&lt;b&gt;Terraform-Api&lt;/b&gt;" style="text;html=1;align=center;verticalAlign=middle;resizable=0;points=[];autosize=1;strokeColor=none;fillColor=none;" vertex="1" parent="1">
          <mxGeometry x="380" y="20" width="100" height="30" as="geometry" />
        </mxCell>
        <mxCell id="qDFJ__rZfRqTDLemH5My-37" value="&lt;b&gt;AWS-Api&lt;/b&gt;" style="text;html=1;align=center;verticalAlign=middle;resizable=0;points=[];autosize=1;strokeColor=none;fillColor=none;" vertex="1" parent="1">
          <mxGeometry x="660" y="20" width="70" height="30" as="geometry" />
        </mxCell>
      </root>
    </mxGraphModel>
  </diagram>
</mxfile>
